<svg xmlns="http://www.w3.org/2000/svg" xmlns:xlink="http://www.w3.org/1999/xlink" viewBox="0 0 240 400">
	<rect class="calViz__day calViz__day--empty" fill="#eeeeee" transform="translate(60,0)" width="9px" height="9px"></rect>
	<rect class="calViz__day calViz__day--empty" fill="#eeeeee" transform="translate(0,10)" width="9px" height="9px"></rect>
	<rect class="calViz__day calViz__day--empty" fill="#eeeeee" transform="translate(10,10)" width="9px" height="9px"></rect>
	<rect class="calViz__day calViz__day--empty" fill="#eeeeee" transform="translate(20,10)" width="9px" height="9px"></rect>
	<rect class="calViz__day calViz__day--empty" fill="#eeeeee" transform="translate(30,10)" width="9px" height="9px"></rect>
	<rect class="calViz__day calViz__day--empty" fill="#eeeeee" transform="translate(40,10)" width="9px" height="9px"></rect>
	<rect class="calViz__day calViz__day--empty" fill="#eeeeee" transform="translate(50,10)" width="9px" height="9px"></rect>
	<rect class="calViz__day calViz__day--empty" fill="#eeeeee" transform="translate(60,10)" width="9px" height="9px"></rect>
	<rect class="calViz__day calViz__day--empty" fill="#eeeeee" transform="translate(0,20)" width="9px" height="9px"></rect>
	<rect class="calViz__day calViz__day--empty" fill="#eeeeee" transform="translate(10,20)" width="9px" height="9px"></rect>
	<rect class="calViz__day calViz__day--empty" fill="#eeeeee" transform="translate(20,20)" width="9px" height="9px"></rect>
	<rect class="calViz__day calViz__day--empty" fill="#eeeeee" transform="translate(30,20)" width="9px" height="9px"></rect>
	<rect class="calViz__day calViz__day--trip calViz__day--0" data-trip="0" fill="#DD0000" transform="translate(40,20)" width="9px" height="9px"></rect>
	<rect class="calViz__day calViz__day--trip calViz__day--0" data-trip="0" fill="#DD0000" transform="translate(50,20)" width="9px" height="9px"></rect>
	<rect class="calViz__day calViz__day--trip calViz__day--0" data-trip="0" fill="#DD0000" transform="translate(60,20)" width="9px" height="9px"></rect>
	<rect class="calViz__day calViz__day--trip calViz__day--0" data-trip="0" fill="#DD0000" transform="translate(0,30)" width="9px" height="9px"></rect>
	<rect class="calViz__day calViz__day--empty" fill="#eeeeee" transform="translate(10,30)" width="9px" height="9px"></rect>
	<rect class="calViz__day calViz__day--empty" fill="#eeeeee" transform="translate(20,30)" width="9px" height="9px"></rect>
	<rect class="calViz__day calViz__day--empty" fill="#eeeeee" transform="translate(30,30)" width="9px" height="9px"></rect>
	<rect class="calViz__day calViz__day--empty" fill="#eeeeee" transform="translate(40,30)" width="9px" height="9px"></rect>
	<rect class="calViz__day calViz__day--empty" fill="#eeeeee" transform="translate(50,30)" width="9px" height="9px"></rect>
	<rect class="calViz__day calViz__day--empty" fill="#eeeeee" transform="translate(60,30)" width="9px" height="9px"></rect>
	<rect class="calViz__day calViz__day--empty" fill="#eeeeee" transform="translate(0,40)" width="9px" height="9px"></rect>
	<rect class="calViz__day calViz__day--empty" fill="#eeeeee" transform="translate(10,40)" width="9px" height="9px"></rect>
	<rect class="calViz__day calViz__day--empty" fill="#eeeeee" transform="translate(20,40)" width="9px" height="9px"></rect>
	<rect class="calViz__day calViz__day--empty" fill="#eeeeee" transform="translate(30,40)" width="9px" height="9px"></rect>
	<rect class="calViz__day calViz__day--empty" fill="#eeeeee" transform="translate(40,40)" width="9px" height="9px"></rect>
	<rect class="calViz__day calViz__day--empty" fill="#eeeeee" transform="translate(50,40)" width="9px" height="9px"></rect>
	<rect class="calViz__day calViz__day--empty" fill="#eeeeee" transform="translate(60,40)" width="9px" height="9px"></rect>
	<rect class="calViz__day calViz__day--empty" fill="#eeeeee" transform="translate(0,50)" width="9px" height="9px"></rect>
	<rect class="calViz__day calViz__day--empty" fill="#eeeeee" transform="translate(10,50)" width="9px" height="9px"></rect>
	<rect class="calViz__day calViz__day--empty" fill="#eeeeee" transform="translate(100,0)" width="9px" height="9px"></rect>
	<rect class="calViz__day calViz__day--empty" fill="#eeeeee" transform="translate(110,0)" width="9px" height="9px"></rect>
	<rect class="calViz__day calViz__day--empty" fill="#eeeeee" transform="translate(120,0)" width="9px" height="9px"></rect>
	<rect class="calViz__day calViz__day--empty" fill="#eeeeee" transform="translate(130,0)" width="9px" height="9px"></rect>
	<rect class="calViz__day calViz__day--empty" fill="#eeeeee" transform="translate(140,0)" width="9px" height="9px"></rect>
	<rect class="calViz__day calViz__day--empty" fill="#eeeeee" transform="translate(80,10)" width="9px" height="9px"></rect>
	<rect class="calViz__day calViz__day--trip calViz__day--1" data-trip="1" fill="#DD0000" transform="translate(90,10)" width="9px" height="9px"></rect>
	<rect class="calViz__day calViz__day--trip calViz__day--1" data-trip="1" fill="#DD0000" transform="translate(100,10)" width="9px" height="9px"></rect>
	<rect class="calViz__day calViz__day--trip calViz__day--1" data-trip="1" fill="#DD0000" transform="translate(110,10)" width="9px" height="9px"></rect>
	<rect class="calViz__day calViz__day--trip calViz__day--1 calViz__day--2" data-trip="2" fill="#DD0000" transform="translate(120,10)" width="9px" height="9px"></rect>
	<rect class="calViz__day calViz__day--trip calViz__day--1 calViz__day--2" data-trip="2" fill="#DD0000" transform="translate(130,10)" width="9px" height="9px"></rect>
	<rect class="calViz__day calViz__day--trip calViz__day--1 calViz__day--2" data-trip="2" fill="#DD0000" transform="translate(140,10)" width="9px" height="9px"></rect>
	<rect class="calViz__day calViz__day--empty" fill="#eeeeee" transform="translate(80,20)" width="9px" height="9px"></rect>
	<rect class="calViz__day calViz__day--empty" fill="#eeeeee" transform="translate(90,20)" width="9px" height="9px"></rect>
	<rect class="calViz__day calViz__day--empty" fill="#eeeeee" transform="translate(100,20)" width="9px" height="9px"></rect>
	<rect class="calViz__day calViz__day--empty" fill="#eeeeee" transform="translate(110,20)" width="9px" height="9px"></rect>
	<rect class="calViz__day calViz__day--empty" fill="#eeeeee" transform="translate(120,20)" width="9px" height="9px"></rect>
	<rect class="calViz__day calViz__day--empty" fill="#eeeeee" transform="translate(130,20)" width="9px" height="9px"></rect>
	<rect class="calViz__day calViz__day--empty" fill="#eeeeee" transform="translate(140,20)" width="9px" height="9px"></rect>
	<rect class="calViz__day calViz__day--empty" fill="#eeeeee" transform="translate(80,30)" width="9px" height="9px"></rect>
	<rect class="calViz__day calViz__day--trip calViz__day--3" data-trip="3" fill="#DD0000" transform="translate(90,30)" width="9px" height="9px"></rect>
	<rect class="calViz__day calViz__day--trip calViz__day--3" data-trip="3" fill="#DD0000" transform="translate(100,30)" width="9px" height="9px"></rect>
	<rect class="calViz__day calViz__day--empty" fill="#eeeeee" transform="translate(110,30)" width="9px" height="9px"></rect>
	<rect class="calViz__day calViz__day--empty" fill="#eeeeee" transform="translate(120,30)" width="9px" height="9px"></rect>
	<rect class="calViz__day calViz__day--empty" fill="#eeeeee" transform="translate(130,30)" width="9px" height="9px"></rect>
	<rect class="calViz__day calViz__day--empty" fill="#eeeeee" transform="translate(140,30)" width="9px" height="9px"></rect>
	<rect class="calViz__day calViz__day--empty" fill="#eeeeee" transform="translate(80,40)" width="9px" height="9px"></rect>
	<rect class="calViz__day calViz__day--empty" fill="#eeeeee" transform="translate(90,40)" width="9px" height="9px"></rect>
	<rect class="calViz__day calViz__day--empty" fill="#eeeeee" transform="translate(100,40)" width="9px" height="9px"></rect>
	<rect class="calViz__day calViz__day--empty" fill="#eeeeee" transform="translate(190,0)" width="9px" height="9px"></rect>
	<rect class="calViz__day calViz__day--empty" fill="#eeeeee" transform="translate(200,0)" width="9px" height="9px"></rect>
	<rect class="calViz__day calViz__day--empty" fill="#eeeeee" transform="translate(210,0)" width="9px" height="9px"></rect>
	<rect class="calViz__day calViz__day--empty" fill="#eeeeee" transform="translate(220,0)" width="9px" height="9px"></rect>
	<rect class="calViz__day calViz__day--empty" fill="#eeeeee" transform="translate(160,10)" width="9px" height="9px"></rect>
	<rect class="calViz__day calViz__day--trip calViz__day--4" data-trip="4" fill="#DD0000" transform="translate(170,10)" width="9px" height="9px"></rect>
	<rect class="calViz__day calViz__day--trip calViz__day--4" data-trip="4" fill="#DD0000" transform="translate(180,10)" width="9px" height="9px"></rect>
	<rect class="calViz__day calViz__day--trip calViz__day--4" data-trip="4" fill="#DD0000" transform="translate(190,10)" width="9px" height="9px"></rect>
	<rect class="calViz__day calViz__day--trip calViz__day--4" data-trip="4" fill="#DD0000" transform="translate(200,10)" width="9px" height="9px"></rect>
	<rect class="calViz__day calViz__day--empty" fill="#eeeeee" transform="translate(210,10)" width="9px" height="9px"></rect>
	<rect class="calViz__day calViz__day--trip calViz__day--5" data-trip="5" fill="#DD0000" transform="translate(220,10)" width="9px" height="9px"></rect>
	<rect class="calViz__day calViz__day--trip calViz__day--5" data-trip="5" fill="#DD0000" transform="translate(160,20)" width="9px" height="9px"></rect>
	<rect class="calViz__day calViz__day--empty" fill="#eeeeee" transform="translate(170,20)" width="9px" height="9px"></rect>
	<rect class="calViz__day calViz__day--empty" fill="#eeeeee" transform="translate(180,20)" width="9px" height="9px"></rect>
	<rect class="calViz__day calViz__day--empty" fill="#eeeeee" transform="translate(190,20)" width="9px" height="9px"></rect>
	<rect class="calViz__day calViz__day--empty" fill="#eeeeee" transform="translate(200,20)" width="9px" height="9px"></rect>
	<rect class="calViz__day calViz__day--empty" fill="#eeeeee" transform="translate(210,20)" width="9px" height="9px"></rect>
	<rect class="calViz__day calViz__day--empty" fill="#eeeeee" transform="translate(220,20)" width="9px" height="9px"></rect>
	<rect class="calViz__day calViz__day--empty" fill="#eeeeee" transform="translate(160,30)" width="9px" height="9px"></rect>
	<rect class="calViz__day calViz__day--empty" fill="#eeeeee" transform="translate(170,30)" width="9px" height="9px"></rect>
	<rect class="calViz__day calViz__day--empty" fill="#eeeeee" transform="translate(180,30)" width="9px" height="9px"></rect>
	<rect class="calViz__day calViz__day--empty" fill="#eeeeee" transform="translate(190,30)" width="9px" height="9px"></rect>
	<rect class="calViz__day calViz__day--empty" fill="#eeeeee" transform="translate(200,30)" width="9px" height="9px"></rect>
	<rect class="calViz__day calViz__day--empty" fill="#eeeeee" transform="translate(210,30)" width="9px" height="9px"></rect>
	<rect class="calViz__day calViz__day--empty" fill="#eeeeee" transform="translate(220,30)" width="9px" height="9px"></rect>
	<rect class="calViz__day calViz__day--empty" fill="#eeeeee" transform="translate(160,40)" width="9px" height="9px"></rect>
	<rect class="calViz__day calViz__day--empty" fill="#eeeeee" transform="translate(170,40)" width="9px" height="9px"></rect>
	<rect class="calViz__day calViz__day--empty" fill="#eeeeee" transform="translate(180,40)" width="9px" height="9px"></rect>
	<rect class="calViz__day calViz__day--empty" fill="#eeeeee" transform="translate(190,40)" width="9px" height="9px"></rect>
	<rect class="calViz__day calViz__day--empty" fill="#eeeeee" transform="translate(200,40)" width="9px" height="9px"></rect>
	<rect class="calViz__day calViz__day--empty" fill="#eeeeee" transform="translate(210,40)" width="9px" height="9px"></rect>
	<rect class="calViz__day calViz__day--trip calViz__day--6" data-trip="6" fill="#DD0000" transform="translate(60,90)" width="9px" height="9px"></rect>
	<rect class="calViz__day calViz__day--trip calViz__day--6" data-trip="6" fill="#DD0000" transform="translate(0,100)" width="9px" height="9px"></rect>
	<rect class="calViz__day calViz__day--trip calViz__day--6 calViz__day--7" data-trip="7" fill="#DD0000" transform="translate(10,100)" width="9px" height="9px"></rect>
	<rect class="calViz__day calViz__day--trip calViz__day--7" data-trip="7" fill="#DD0000" transform="translate(20,100)" width="9px" height="9px"></rect>
	<rect class="calViz__day calViz__day--trip calViz__day--7" data-trip="7" fill="#DD0000" transform="translate(30,100)" width="9px" height="9px"></rect>
	<rect class="calViz__day calViz__day--trip calViz__day--7" data-trip="7" fill="#DD0000" transform="translate(40,100)" width="9px" height="9px"></rect>
	<rect class="calViz__day calViz__day--trip calViz__day--7" data-trip="7" fill="#DD0000" transform="translate(50,100)" width="9px" height="9px"></rect>
	<rect class="calViz__day calViz__day--trip calViz__day--8" data-trip="8" fill="#DD0000" transform="translate(60,100)" width="9px" height="9px"></rect>
	<rect class="calViz__day calViz__day--trip calViz__day--8" data-trip="8" fill="#DD0000" transform="translate(0,110)" width="9px" height="9px"></rect>
	<rect class="calViz__day calViz__day--trip calViz__day--8" data-trip="8" fill="#DD0000" transform="translate(10,110)" width="9px" height="9px"></rect>
	<rect class="calViz__day calViz__day--empty" fill="#eeeeee" transform="translate(20,110)" width="9px" height="9px"></rect>
	<rect class="calViz__day calViz__day--empty" fill="#eeeeee" transform="translate(30,110)" width="9px" height="9px"></rect>
	<rect class="calViz__day calViz__day--empty" fill="#eeeeee" transform="translate(40,110)" width="9px" height="9px"></rect>
	<rect class="calViz__day calViz__day--empty" fill="#eeeeee" transform="translate(50,110)" width="9px" height="9px"></rect>
	<rect class="calViz__day calViz__day--empty" fill="#eeeeee" transform="translate(60,110)" width="9px" height="9px"></rect>
	<rect class="calViz__day calViz__day--empty" fill="#eeeeee" transform="translate(0,120)" width="9px" height="9px"></rect>
	<rect class="calViz__day calViz__day--trip calViz__day--9" data-trip="9" fill="#DD0000" transform="translate(10,120)" width="9px" height="9px"></rect>
	<rect class="calViz__day calViz__day--trip calViz__day--9" data-trip="9" fill="#DD0000" transform="translate(20,120)" width="9px" height="9px"></rect>
	<rect class="calViz__day calViz__day--empty" fill="#eeeeee" transform="translate(30,120)" width="9px" height="9px"></rect>
	<rect class="calViz__day calViz__day--empty" fill="#eeeeee" transform="translate(40,120)" width="9px" height="9px"></rect>
	<rect class="calViz__day calViz__day--empty" fill="#eeeeee" transform="translate(50,120)" width="9px" height="9px"></rect>
	<rect class="calViz__day calViz__day--empty" fill="#eeeeee" transform="translate(60,120)" width="9px" height="9px"></rect>
	<rect class="calViz__day calViz__day--empty" fill="#eeeeee" transform="translate(0,130)" width="9px" height="9px"></rect>
	<rect class="calViz__day calViz__day--empty" fill="#eeeeee" transform="translate(10,130)" width="9px" height="9px"></rect>
	<rect class="calViz__day calViz__day--empty" fill="#eeeeee" transform="translate(20,130)" width="9px" height="9px"></rect>
	<rect class="calViz__day calViz__day--empty" fill="#eeeeee" transform="translate(30,130)" width="9px" height="9px"></rect>
	<rect class="calViz__day calViz__day--trip 4/27 calViz__day--10" data-trip="10" fill="#DD0000" transform="translate(40,130)" width="9px" height="9px"></rect>
	<rect class="calViz__day calViz__day--trip calViz__day--10" data-trip="10" fill="#DD0000" transform="translate(50,130)" width="9px" height="9px"></rect>
	<rect class="calViz__day calViz__day--trip calViz__day--10 calViz__day--11" data-trip="11" fill="#DD0000" transform="translate(60,130)" width="9px" height="9px"></rect>
	<rect class="calViz__day calViz__day--empty" fill="#eeeeee" transform="translate(0,140)" width="9px" height="9px"></rect>
	<rect class="calViz__day calViz__day--empty" fill="#eeeeee" transform="translate(90,90)" width="9px" height="9px"></rect>
	<rect class="calViz__day calViz__day--empty" fill="#eeeeee" transform="translate(100,90)" width="9px" height="9px"></rect>
	<rect class="calViz__day calViz__day--empty" fill="#eeeeee" transform="translate(110,90)" width="9px" height="9px"></rect>
	<rect class="calViz__day calViz__day--empty" fill="#eeeeee" transform="translate(120,90)" width="9px" height="9px"></rect>
	<rect class="calViz__day calViz__day--empty" fill="#eeeeee" transform="translate(130,90)" width="9px" height="9px"></rect>
	<rect class="calViz__day calViz__day--empty" fill="#eeeeee" transform="translate(140,90)" width="9px" height="9px"></rect>
	<rect class="calViz__day calViz__day--empty" fill="#eeeeee" transform="translate(80,100)" width="9px" height="9px"></rect>
	<rect class="calViz__day calViz__day--empty" fill="#eeeeee" transform="translate(90,100)" width="9px" height="9px"></rect>
	<rect class="calViz__day calViz__day--empty" fill="#eeeeee" transform="translate(100,100)" width="9px" height="9px"></rect>
	<rect class="calViz__day calViz__day--empty" fill="#eeeeee" transform="translate(110,100)" width="9px" height="9px"></rect>
	<rect class="calViz__day calViz__day--empty" fill="#eeeeee" transform="translate(120,100)" width="9px" height="9px"></rect>
	<rect class="calViz__day calViz__day--trip calViz__day--12" data-trip="12" fill="#DD0000" transform="translate(130,100)" width="9px" height="9px"></rect>
	<rect class="calViz__day calViz__day--empty" fill="#eeeeee" transform="translate(140,100)" width="9px" height="9px"></rect>
	<rect class="calViz__day calViz__day--empty" fill="#eeeeee" transform="translate(80,110)" width="9px" height="9px"></rect>
	<rect class="calViz__day calViz__day--empty" fill="#eeeeee" transform="translate(90,110)" width="9px" height="9px"></rect>
	<rect class="calViz__day calViz__day--empty" fill="#eeeeee" transform="translate(100,110)" width="9px" height="9px"></rect>
	<rect class="calViz__day calViz__day--trip calViz__day--13" data-trip="13" fill="#DD0000" transform="translate(110,110)" width="9px" height="9px"></rect>
	<rect class="calViz__day calViz__day--empty" fill="#eeeeee" transform="translate(120,110)" width="9px" height="9px"></rect>
	<rect class="calViz__day calViz__day--empty" fill="#eeeeee" transform="translate(130,110)" width="9px" height="9px"></rect>
	<rect class="calViz__day calViz__day--empty" fill="#eeeeee" transform="translate(140,110)" width="9px" height="9px"></rect>
	<rect class="calViz__day calViz__day--empty" fill="#eeeeee" transform="translate(80,120)" width="9px" height="9px"></rect>
	<rect class="calViz__day calViz__day--empty" fill="#eeeeee" transform="translate(90,120)" width="9px" height="9px"></rect>
	<rect class="calViz__day calViz__day--empty" fill="#eeeeee" transform="translate(100,120)" width="9px" height="9px"></rect>
	<rect class="calViz__day calViz__day--empty" fill="#eeeeee" transform="translate(110,120)" width="9px" height="9px"></rect>
	<rect class="calViz__day calViz__day--empty" fill="#eeeeee" transform="translate(120,120)" width="9px" height="9px"></rect>
	<rect class="calViz__day calViz__day--empty" fill="#eeeeee" transform="translate(130,120)" width="9px" height="9px"></rect>
	<rect class="calViz__day calViz__day--empty" fill="#eeeeee" transform="translate(140,120)" width="9px" height="9px"></rect>
	<rect class="calViz__day calViz__day--empty" fill="#eeeeee" transform="translate(80,130)" width="9px" height="9px"></rect>
	<rect class="calViz__day calViz__day--empty" fill="#eeeeee" transform="translate(90,130)" width="9px" height="9px"></rect>
	<rect class="calViz__day calViz__day--empty" fill="#eeeeee" transform="translate(100,130)" width="9px" height="9px"></rect>
	<rect class="calViz__day calViz__day--empty" fill="#eeeeee" transform="translate(110,130)" width="9px" height="9px"></rect>
	<rect class="calViz__day calViz__day--empty" fill="#eeeeee" transform="translate(200,90)" width="9px" height="9px"></rect>
	<rect class="calViz__day calViz__day--empty" fill="#eeeeee" transform="translate(210,90)" width="9px" height="9px"></rect>
	<rect class="calViz__day calViz__day--empty" fill="#eeeeee" transform="translate(220,90)" width="9px" height="9px"></rect>
	<rect class="calViz__day calViz__day--empty" fill="#eeeeee" transform="translate(160,100)" width="9px" height="9px"></rect>
	<rect class="calViz__day calViz__day--empty" fill="#eeeeee" transform="translate(170,100)" width="9px" height="9px"></rect>
	<rect class="calViz__day calViz__day--empty" fill="#eeeeee" transform="translate(180,100)" width="9px" height="9px"></rect>
	<rect class="calViz__day calViz__day--empty" fill="#eeeeee" transform="translate(190,100)" width="9px" height="9px"></rect>
	<rect class="calViz__day calViz__day--empty" fill="#eeeeee" transform="translate(200,100)" width="9px" height="9px"></rect>
	<rect class="calViz__day calViz__day--empty" fill="#eeeeee" transform="translate(210,100)" width="9px" height="9px"></rect>
	<rect class="calViz__day calViz__day--empty" fill="#eeeeee" transform="translate(220,100)" width="9px" height="9px"></rect>
	<rect class="calViz__day calViz__day--empty" fill="#eeeeee" transform="translate(160,110)" width="9px" height="9px"></rect>
	<rect class="calViz__day calViz__day--empty" fill="#eeeeee" transform="translate(170,110)" width="9px" height="9px"></rect>
	<rect class="calViz__day calViz__day--empty" fill="#eeeeee" transform="translate(180,110)" width="9px" height="9px"></rect>
	<rect class="calViz__day calViz__day--empty" fill="#eeeeee" transform="translate(190,110)" width="9px" height="9px"></rect>
	<rect class="calViz__day calViz__day--empty" fill="#eeeeee" transform="translate(200,110)" width="9px" height="9px"></rect>
	<rect class="calViz__day calViz__day--trip calViz__day--14" data-trip="14" fill="#DD0000" transform="translate(210,110)" width="9px" height="9px"></rect>
	<rect class="calViz__day calViz__day--trip calViz__day--14" data-trip="14" fill="#DD0000" transform="translate(220,110)" width="9px" height="9px"></rect>
	<rect class="calViz__day calViz__day--empty" fill="#eeeeee" transform="translate(160,120)" width="9px" height="9px"></rect>
	<rect class="calViz__day calViz__day--empty" fill="#eeeeee" transform="translate(170,120)" width="9px" height="9px"></rect>
	<rect class="calViz__day calViz__day--empty" fill="#eeeeee" transform="translate(180,120)" width="9px" height="9px"></rect>
	<rect class="calViz__day calViz__day--trip calViz__day--15" data-trip="15" fill="#DD0000" transform="translate(190,120)" width="9px" height="9px"></rect>
	<rect class="calViz__day calViz__day--trip calViz__day--16" data-trip="16" fill="#DD0000" transform="translate(200,120)" width="9px" height="9px"></rect>
	<rect class="calViz__day calViz__day--trip calViz__day--16" data-trip="16" fill="#DD0000" transform="translate(210,120)" width="9px" height="9px"></rect>
	<rect class="calViz__day calViz__day--trip calViz__day--16" data-trip="16" fill="#DD0000" transform="translate(220,120)" width="9px" height="9px"></rect>
	<rect class="calViz__day calViz__day--trip calViz__day--16" data-trip="16" fill="#DD0000" transform="translate(160,130)" width="9px" height="9px"></rect>
	<rect class="calViz__day calViz__day--trip calViz__day--16" data-trip="16" fill="#DD0000" transform="translate(170,130)" width="9px" height="9px"></rect>
	<rect class="calViz__day calViz__day--empty" fill="#eeeeee" transform="translate(180,130)" width="9px" height="9px"></rect>
	<rect class="calViz__day calViz__day--empty" fill="#eeeeee" transform="translate(190,130)" width="9px" height="9px"></rect>
	<rect class="calViz__day calViz__day--empty" fill="#eeeeee" transform="translate(200,130)" width="9px" height="9px"></rect>
	<rect class="calViz__day calViz__day--empty" fill="#eeeeee" transform="translate(210,130)" width="9px" height="9px"></rect>
	<rect class="calViz__day calViz__day--empty" fill="#eeeeee" transform="translate(60,180)" width="9px" height="9px"></rect>
	<rect class="calViz__day calViz__day--empty" fill="#eeeeee" transform="translate(0,190)" width="9px" height="9px"></rect>
	<rect class="calViz__day calViz__day--empty" fill="#eeeeee" transform="translate(10,190)" width="9px" height="9px"></rect>
	<rect class="calViz__day calViz__day--empty" fill="#eeeeee" transform="translate(20,190)" width="9px" height="9px"></rect>
	<rect class="calViz__day calViz__day--empty" fill="#eeeeee" transform="translate(30,190)" width="9px" height="9px"></rect>
	<rect class="calViz__day calViz__day--trip calViz__day--17" data-trip="17" fill="#DD0000" transform="translate(40,190)" width="9px" height="9px"></rect>
	<rect class="calViz__day calViz__day--empty" fill="#eeeeee" transform="translate(50,190)" width="9px" height="9px"></rect>
	<rect class="calViz__day calViz__day--empty" fill="#eeeeee" transform="translate(60,190)" width="9px" height="9px"></rect>
	<rect class="calViz__day calViz__day--empty" fill="#eeeeee" transform="translate(0,200)" width="9px" height="9px"></rect>
	<rect class="calViz__day calViz__day--empty" fill="#eeeeee" transform="translate(10,200)" width="9px" height="9px"></rect>
	<rect class="calViz__day calViz__day--trip calViz__day--18" data-trip="18" fill="#DD0000" transform="translate(20,200)" width="9px" height="9px"></rect>
	<rect class="calViz__day calViz__day--trip calViz__day--19" data-trip="19" fill="#DD0000" transform="translate(30,200)" width="9px" height="9px"></rect>
	<rect class="calViz__day calViz__day--trip calViz__day--19" data-trip="19" fill="#DD0000" transform="translate(40,200)" width="9px" height="9px"></rect>
	<rect class="calViz__day calViz__day--trip calViz__day--19" data-trip="19" fill="#DD0000" transform="translate(50,200)" width="9px" height="9px"></rect>
	<rect class="calViz__day calViz__day--empty" fill="#eeeeee" transform="translate(60,200)" width="9px" height="9px"></rect>
	<rect class="calViz__day calViz__day--empty" fill="#eeeeee" transform="translate(0,210)" width="9px" height="9px"></rect>
	<rect class="calViz__day calViz__day--empty" fill="#eeeeee" transform="translate(10,210)" width="9px" height="9px"></rect>
	<rect class="calViz__day calViz__day--empty" fill="#eeeeee" transform="translate(20,210)" width="9px" height="9px"></rect>
	<rect class="calViz__day calViz__day--empty" fill="#eeeeee" transform="translate(30,210)" width="9px" height="9px"></rect>
	<rect class="calViz__day calViz__day--empty" fill="#eeeeee" transform="translate(40,210)" width="9px" height="9px"></rect>
	<rect class="calViz__day calViz__day--trip calViz__day--20" data-trip="20" fill="#DD0000" transform="translate(50,210)" width="9px" height="9px"></rect>
	<rect class="calViz__day calViz__day--empty" fill="#eeeeee" transform="translate(60,210)" width="9px" height="9px"></rect>
	<rect class="calViz__day calViz__day--empty" fill="#eeeeee" transform="translate(0,220)" width="9px" height="9px"></rect>
	<rect class="calViz__day calViz__day--empty" fill="#eeeeee" transform="translate(10,220)" width="9px" height="9px"></rect>
	<rect class="calViz__day calViz__day--empty" fill="#eeeeee" transform="translate(20,220)" width="9px" height="9px"></rect>
	<rect class="calViz__day calViz__day--empty" fill="#eeeeee" transform="translate(30,220)" width="9px" height="9px"></rect>
	<rect class="calViz__day calViz__day--empty" fill="#eeeeee" transform="translate(40,220)" width="9px" height="9px"></rect>
	<rect class="calViz__day calViz__day--empty" fill="#eeeeee" transform="translate(50,220)" width="9px" height="9px"></rect>
	<rect class="calViz__day calViz__day--empty" fill="#eeeeee" transform="translate(60,220)" width="9px" height="9px"></rect>
	<rect class="calViz__day calViz__day--empty" fill="#eeeeee" transform="translate(0,230)" width="9px" height="9px"></rect>
	<rect class="calViz__day calViz__day--empty" fill="#eeeeee" transform="translate(10,230)" width="9px" height="9px"></rect>
	<rect class="calViz__day calViz__day--empty" fill="#eeeeee" transform="translate(100,180)" width="9px" height="9px"></rect>
	<rect class="calViz__day calViz__day--empty" fill="#eeeeee" transform="translate(110,180)" width="9px" height="9px"></rect>
	<rect class="calViz__day calViz__day--empty" fill="#eeeeee" transform="translate(120,180)" width="9px" height="9px"></rect>
	<rect class="calViz__day calViz__day--empty" fill="#eeeeee" transform="translate(130,180)" width="9px" height="9px"></rect>
	<rect class="calViz__day calViz__day--empty" fill="#eeeeee" transform="translate(140,180)" width="9px" height="9px"></rect>
	<rect class="calViz__day calViz__day--empty" fill="#eeeeee" transform="translate(80,190)" width="9px" height="9px"></rect>
	<rect class="calViz__day calViz__day--empty" fill="#eeeeee" transform="translate(90,190)" width="9px" height="9px"></rect>
	<rect class="calViz__day calViz__day--empty" fill="#eeeeee" transform="translate(100,190)" width="9px" height="9px"></rect>
	<rect class="calViz__day calViz__day--empty" fill="#eeeeee" transform="translate(110,190)" width="9px" height="9px"></rect>
	<rect class="calViz__day calViz__day--empty" fill="#eeeeee" transform="translate(120,190)" width="9px" height="9px"></rect>
	<rect class="calViz__day calViz__day--empty" fill="#eeeeee" transform="translate(130,190)" width="9px" height="9px"></rect>
	<rect class="calViz__day calViz__day--empty" fill="#eeeeee" transform="translate(140,190)" width="9px" height="9px"></rect>
	<rect class="calViz__day calViz__day--empty" fill="#eeeeee" transform="translate(80,200)" width="9px" height="9px"></rect>
	<rect class="calViz__day calViz__day--empty" fill="#eeeeee" transform="translate(90,200)" width="9px" height="9px"></rect>
	<rect class="calViz__day calViz__day--empty" fill="#eeeeee" transform="translate(100,200)" width="9px" height="9px"></rect>
	<rect class="calViz__day calViz__day--empty" fill="#eeeeee" transform="translate(110,200)" width="9px" height="9px"></rect>
	<rect class="calViz__day calViz__day--empty" fill="#eeeeee" transform="translate(120,200)" width="9px" height="9px"></rect>
	<rect class="calViz__day calViz__day--empty" fill="#eeeeee" transform="translate(130,200)" width="9px" height="9px"></rect>
	<rect class="calViz__day calViz__day--empty" fill="#eeeeee" transform="translate(140,200)" width="9px" height="9px"></rect>
	<rect class="calViz__day calViz__day--empty" fill="#eeeeee" transform="translate(80,210)" width="9px" height="9px"></rect>
	<rect class="calViz__day calViz__day--empty" fill="#eeeeee" transform="translate(90,210)" width="9px" height="9px"></rect>
	<rect class="calViz__day calViz__day--empty" fill="#eeeeee" transform="translate(100,210)" width="9px" height="9px"></rect>
	<rect class="calViz__day calViz__day--empty" fill="#eeeeee" transform="translate(110,210)" width="9px" height="9px"></rect>
	<rect class="calViz__day calViz__day--empty" fill="#eeeeee" transform="translate(120,210)" width="9px" height="9px"></rect>
	<rect class="calViz__day calViz__day--empty" fill="#eeeeee" transform="translate(130,210)" width="9px" height="9px"></rect>
	<rect class="calViz__day calViz__day--empty" fill="#eeeeee" transform="translate(140,210)" width="9px" height="9px"></rect>
	<rect class="calViz__day calViz__day--empty" fill="#eeeeee" transform="translate(80,220)" width="9px" height="9px"></rect>
	<rect class="calViz__day calViz__day--empty" fill="#eeeeee" transform="translate(90,220)" width="9px" height="9px"></rect>
	<rect class="calViz__day calViz__day--empty" fill="#eeeeee" transform="translate(100,220)" width="9px" height="9px"></rect>
	<rect class="calViz__day calViz__day--empty" fill="#eeeeee" transform="translate(110,220)" width="9px" height="9px"></rect>
	<rect class="calViz__day calViz__day--empty" fill="#eeeeee" transform="translate(120,220)" width="9px" height="9px"></rect>
	<rect class="calViz__day calViz__day--empty" fill="#eeeeee" transform="translate(210,180)" width="9px" height="9px"></rect>
	<rect class="calViz__day calViz__day--empty" fill="#eeeeee" transform="translate(220,180)" width="9px" height="9px"></rect>
	<rect class="calViz__day calViz__day--empty" fill="#eeeeee" transform="translate(160,190)" width="9px" height="9px"></rect>
	<rect class="calViz__day calViz__day--empty" fill="#eeeeee" transform="translate(170,190)" width="9px" height="9px"></rect>
	<rect class="calViz__day calViz__day--empty" fill="#eeeeee" transform="translate(180,190)" width="9px" height="9px"></rect>
	<rect class="calViz__day calViz__day--empty" fill="#eeeeee" transform="translate(190,190)" width="9px" height="9px"></rect>
	<rect class="calViz__day calViz__day--empty" fill="#eeeeee" transform="translate(200,190)" width="9px" height="9px"></rect>
	<rect class="calViz__day calViz__day--trip calViz__day--21" data-trip="21" fill="#DD0000" transform="translate(210,190)" width="9px" height="9px"></rect>
	<rect class="calViz__day calViz__day--trip calViz__day--21" data-trip="21" fill="#DD0000" transform="translate(220,190)" width="9px" height="9px"></rect>
	<rect class="calViz__day calViz__day--trip calViz__day--21" data-trip="21" fill="#DD0000" transform="translate(160,200)" width="9px" height="9px"></rect>
	<rect class="calViz__day calViz__day--empty" fill="#eeeeee" transform="translate(170,200)" width="9px" height="9px"></rect>
	<rect class="calViz__day calViz__day--empty" fill="#eeeeee" transform="translate(180,200)" width="9px" height="9px"></rect>
	<rect class="calViz__day calViz__day--empty" fill="#eeeeee" transform="translate(190,200)" width="9px" height="9px"></rect>
	<rect class="calViz__day calViz__day--empty" fill="#eeeeee" transform="translate(200,200)" width="9px" height="9px"></rect>
	<rect class="calViz__day calViz__day--empty" fill="#eeeeee" transform="translate(210,200)" width="9px" height="9px"></rect>
	<rect class="calViz__day calViz__day--empty" fill="#eeeeee" transform="translate(220,200)" width="9px" height="9px"></rect>
	<rect class="calViz__day calViz__day--empty" fill="#eeeeee" transform="translate(160,210)" width="9px" height="9px"></rect>
	<rect class="calViz__day calViz__day--empty" fill="#eeeeee" transform="translate(170,210)" width="9px" height="9px"></rect>
	<rect class="calViz__day calViz__day--empty" fill="#eeeeee" transform="translate(180,210)" width="9px" height="9px"></rect>
	<rect class="calViz__day calViz__day--trip calViz__day--22" data-trip="22" fill="#DD0000" transform="translate(190,210)" width="9px" height="9px"></rect>
	<rect class="calViz__day calViz__day--empty" fill="#eeeeee" transform="translate(200,210)" width="9px" height="9px"></rect>
	<rect class="calViz__day calViz__day--empty" fill="#eeeeee" transform="translate(210,210)" width="9px" height="9px"></rect>
	<rect class="calViz__day calViz__day--empty" fill="#eeeeee" transform="translate(220,210)" width="9px" height="9px"></rect>
	<rect class="calViz__day calViz__day--empty" fill="#eeeeee" transform="translate(160,220)" width="9px" height="9px"></rect>
	<rect class="calViz__day calViz__day--empty" fill="#eeeeee" transform="translate(170,220)" width="9px" height="9px"></rect>
	<rect class="calViz__day calViz__day--empty" fill="#eeeeee" transform="translate(180,220)" width="9px" height="9px"></rect>
	<rect class="calViz__day calViz__day--empty" fill="#eeeeee" transform="translate(190,220)" width="9px" height="9px"></rect>
	<rect class="calViz__day calViz__day--empty" fill="#eeeeee" transform="translate(200,220)" width="9px" height="9px"></rect>
	<rect class="calViz__day calViz__day--empty" fill="#eeeeee" transform="translate(210,220)" width="9px" height="9px"></rect>
	<rect class="calViz__day calViz__day--empty" fill="#eeeeee" transform="translate(220,220)" width="9px" height="9px"></rect>
	<rect class="calViz__day calViz__day--empty" fill="#eeeeee" transform="translate(0,270)" width="9px" height="9px"></rect>
	<rect class="calViz__day calViz__day--empty" fill="#eeeeee" transform="translate(10,270)" width="9px" height="9px"></rect>
	<rect class="calViz__day calViz__day--empty" fill="#eeeeee" transform="translate(20,270)" width="9px" height="9px"></rect>
	<rect class="calViz__day calViz__day--trip calViz__day--23" data-trip="23" fill="#DD0000" transform="translate(30,270)" width="9px" height="9px"></rect>
	<rect class="calViz__day calViz__day--trip calViz__day--23" data-trip="23" fill="#DD0000" transform="translate(40,270)" width="9px" height="9px"></rect>
	<rect class="calViz__day calViz__day--trip calViz__day--24" data-trip="24" fill="#DD0000" transform="translate(50,270)" width="9px" height="9px"></rect>
	<rect class="calViz__day calViz__day--trip calViz__day--24" data-trip="24" fill="#DD0000" transform="translate(60,270)" width="9px" height="9px"></rect>
	<rect class="calViz__day calViz__day--empty" fill="#eeeeee" transform="translate(0,280)" width="9px" height="9px"></rect>
	<rect class="calViz__day calViz__day--trip calViz__day--25" data-trip="25" fill="#DD0000" transform="translate(10,280)" width="9px" height="9px"></rect>
	<rect class="calViz__day calViz__day--trip calViz__day--25" data-trip="25" fill="#DD0000" transform="translate(20,280)" width="9px" height="9px"></rect>
	<rect class="calViz__day calViz__day--empty" fill="#eeeeee" transform="translate(30,280)" width="9px" height="9px"></rect>
	<rect class="calViz__day calViz__day--empty" fill="#eeeeee" transform="translate(40,280)" width="9px" height="9px"></rect>
	<rect class="calViz__day calViz__day--empty" fill="#eeeeee" transform="translate(50,280)" width="9px" height="9px"></rect>
	<rect class="calViz__day calViz__day--empty" fill="#eeeeee" transform="translate(60,280)" width="9px" height="9px"></rect>
	<rect class="calViz__day calViz__day--empty" fill="#eeeeee" transform="translate(0,290)" width="9px" height="9px"></rect>
	<rect class="calViz__day calViz__day--empty" fill="#eeeeee" transform="translate(10,290)" width="9px" height="9px"></rect>
	<rect class="calViz__day calViz__day--empty" fill="#eeeeee" transform="translate(20,290)" width="9px" height="9px"></rect>
	<rect class="calViz__day calViz__day--trip calViz__day--26" data-trip="26" fill="#DD0000" transform="translate(30,290)" width="9px" height="9px"></rect>
	<rect class="calViz__day calViz__day--trip calViz__day--26 calViz__day--27" data-trip="27" fill="#DD0000" transform="translate(40,290)" width="9px" height="9px"></rect>
	<rect class="calViz__day calViz__day--trip calViz__day--27" data-trip="27" fill="#DD0000" transform="translate(50,290)" width="9px" height="9px"></rect>
	<rect class="calViz__day calViz__day--trip calViz__day--27" data-trip="27" fill="#DD0000" transform="translate(60,290)" width="9px" height="9px"></rect>
	<rect class="calViz__day calViz__day--trip calViz__day--empty" fill="#eeeeee" transform="translate(0,300)" width="9px" height="9px"></rect>
	<rect class="calViz__day calViz__day--trip calViz__day--empty" fill="#eeeeee" transform="translate(10,300)" width="9px" height="9px"></rect>
	<rect class="calViz__day calViz__day--trip calViz__day--28" data-trip="28" fill="#DD0000" transform="translate(20,300)" width="9px" height="9px"></rect>
	<rect class="calViz__day calViz__day--trip calViz__day--28" data-trip="28" fill="#DD0000" transform="translate(30,300)" width="9px" height="9px"></rect>
	<rect class="calViz__day calViz__day--trip calViz__day--empty" fill="#eeeeee" transform="translate(40,300)" width="9px" height="9px"></rect>
	<rect class="calViz__day calViz__day--trip calViz__day--31" data-trip="31" fill="#DD0000" transform="translate(50,300)" width="9px" height="9px"></rect>
	<rect class="calViz__day calViz__day--trip calViz__day--31" data-trip="31" fill="#DD0000" transform="translate(60,300)" width="9px" height="9px"></rect>
	<rect class="calViz__day calViz__day--empty" fill="#eeeeee" transform="translate(0,310)" width="9px" height="9px"></rect>
	<rect class="calViz__day calViz__day--empty" fill="#eeeeee" transform="translate(10,310)" width="9px" height="9px"></rect>
	<rect class="calViz__day calViz__day--empty" fill="#eeeeee" transform="translate(20,310)" width="9px" height="9px"></rect>
	<rect class="calViz__day calViz__day--empty" fill="#eeeeee" transform="translate(110,270)" width="9px" height="9px"></rect>
	<rect class="calViz__day calViz__day--empty" fill="#eeeeee" transform="translate(120,270)" width="9px" height="9px"></rect>
	<rect class="calViz__day calViz__day--empty" fill="#eeeeee" transform="translate(130,270)" width="9px" height="9px"></rect>
	<rect class="calViz__day calViz__day--empty" fill="#eeeeee" transform="translate(140,270)" width="9px" height="9px"></rect>
	<rect class="calViz__day calViz__day--empty" fill="#eeeeee" transform="translate(80,280)" width="9px" height="9px"></rect>
	<rect class="calViz__day calViz__day--empty" fill="#eeeeee" transform="translate(90,280)" width="9px" height="9px"></rect>
	<rect class="calViz__day calViz__day--trip calViz__day--32" data-trip="32" fill="#DD0000" transform="translate(100,280)" width="9px" height="9px"></rect>
	<rect class="calViz__day calViz__day--trip calViz__day--32" data-trip="32" fill="#DD0000" transform="translate(110,280)" width="9px" height="9px"></rect>
	<rect class="calViz__day calViz__day--trip calViz__day--32" data-trip="32" fill="#DD0000" transform="translate(120,280)" width="9px" height="9px"></rect>
	<rect class="calViz__day calViz__day--empty" fill="#eeeeee" transform="translate(130,280)" width="9px" height="9px"></rect>
	<rect class="calViz__day calViz__day--empty" fill="#eeeeee" transform="translate(140,280)" width="9px" height="9px"></rect>
	<rect class="calViz__day calViz__day--trip calViz__day--33" data-trip="33" fill="#DD0000" transform="translate(80,290)" width="9px" height="9px"></rect>
	<rect class="calViz__day calViz__day--trip calViz__day--33" data-trip="33" fill="#DD0000" transform="translate(90,290)" width="9px" height="9px"></rect>
	<rect class="calViz__day calViz__day--trip calViz__day--34" data-trip="34" fill="#DD0000" transform="translate(100,290)" width="9px" height="9px"></rect>
	<rect class="calViz__day calViz__day--trip calViz__day--34" data-trip="34" fill="#DD0000" transform="translate(110,290)" width="9px" height="9px"></rect>
	<rect class="calViz__day calViz__day--empty" fill="#eeeeee" transform="translate(120,290)" width="9px" height="9px"></rect>
	<rect class="calViz__day calViz__day--empty" fill="#eeeeee" transform="translate(130,290)" width="9px" height="9px"></rect>
	<rect class="calViz__day calViz__day--trip calViz__day--35" data-trip="35" fill="#DD0000" transform="translate(140,290)" width="9px" height="9px"></rect>
	<rect class="calViz__day calViz__day--trip calViz__day--36" data-trip="36" fill="#DD0000" transform="translate(80,300)" width="9px" height="9px"></rect>
	<rect class="calViz__day calViz__day--empty" fill="#eeeeee" transform="translate(90,300)" width="9px" height="9px"></rect>
	<rect class="calViz__day calViz__day--empty" fill="#eeeeee" transform="translate(100,300)" width="9px" height="9px"></rect>
	<rect class="calViz__day calViz__day--empty" fill="#eeeeee" transform="translate(110,300)" width="9px" height="9px"></rect>
	<rect class="calViz__day calViz__day--empty" fill="#eeeeee" transform="translate(120,300)" width="9px" height="9px"></rect>
	<rect class="calViz__day calViz__day--empty" fill="#eeeeee" transform="translate(130,300)" width="9px" height="9px"></rect>
	<rect class="calViz__day calViz__day--empty" fill="#eeeeee" transform="translate(140,300)" width="9px" height="9px"></rect>
	<rect class="calViz__day calViz__day--empty" fill="#eeeeee" transform="translate(80,310)" width="9px" height="9px"></rect>
	<rect class="calViz__day calViz__day--empty" fill="#eeeeee" transform="translate(90,310)" width="9px" height="9px"></rect>
	<rect class="calViz__day calViz__day--empty" fill="#eeeeee" transform="translate(100,310)" width="9px" height="9px"></rect>
	<rect class="calViz__day calViz__day--trip calViz__day--37" data-trip="37" fill="#DD0000" transform="translate(110,310)" width="9px" height="9px"></rect>
	<rect class="calViz__day calViz__day--trip calViz__day--38" data-trip="38" fill="#DD0000" transform="translate(120,310)" width="9px" height="9px"></rect>
	<rect class="calViz__day calViz__day--empty" fill="#eeeeee" transform="translate(210,270)" width="9px" height="9px"></rect>
	<rect class="calViz__day calViz__day--empty" fill="#eeeeee" transform="translate(220,270)" width="9px" height="9px"></rect>
	<rect class="calViz__day calViz__day--empty" fill="#eeeeee" transform="translate(160,280)" width="9px" height="9px"></rect>
	<rect class="calViz__day calViz__day--empty" fill="#eeeeee" transform="translate(170,280)" width="9px" height="9px"></rect>
	<rect class="calViz__day calViz__day--empty" fill="#eeeeee" transform="translate(180,280)" width="9px" height="9px"></rect>
	<rect class="calViz__day calViz__day--empty" fill="#eeeeee" transform="translate(190,280)" width="9px" height="9px"></rect>
	<rect class="calViz__day calViz__day--empty" fill="#eeeeee" transform="translate(200,280)" width="9px" height="9px"></rect>
	<rect class="calViz__day calViz__day--empty" fill="#eeeeee" transform="translate(210,280)" width="9px" height="9px"></rect>
	<rect class="calViz__day calViz__day--trip calViz__day--40" data-trip="40" fill="#DD0000" transform="translate(220,280)" width="9px" height="9px"></rect>
	<rect class="calViz__day calViz__day--trip calViz__day--40" data-trip="40" fill="#DD0000" transform="translate(160,290)" width="9px" height="9px"></rect>
	<rect class="calViz__day calViz__day--trip calViz__day--40" data-trip="40" fill="#DD0000" transform="translate(170,290)" width="9px" height="9px"></rect>
	<rect class="calViz__day calViz__day--empty" fill="#eeeeee" transform="translate(180,290)" width="9px" height="9px"></rect>
	<rect class="calViz__day calViz__day--trip calViz__day--41" data-trip="41" fill="#DD0000" transform="translate(190,290)" width="9px" height="9px"></rect>
	<rect class="calViz__day calViz__day--trip calViz__day--41" data-trip="41" fill="#DD0000" transform="translate(200,290)" width="9px" height="9px"></rect>
	<rect class="calViz__day calViz__day--empty" fill="#eeeeee" transform="translate(210,290)" width="9px" height="9px"></rect>
	<rect class="calViz__day calViz__day--empty" fill="#eeeeee" transform="translate(220,290)" width="9px" height="9px"></rect>
	<rect class="calViz__day calViz__day--empty" fill="#eeeeee" transform="translate(160,300)" width="9px" height="9px"></rect>
	<rect class="calViz__day calViz__day--empty" fill="#eeeeee" transform="translate(170,300)" width="9px" height="9px"></rect>
	<rect class="calViz__day calViz__day--empty" fill="#eeeeee" transform="translate(180,300)" width="9px" height="9px"></rect>
	<rect class="calViz__day calViz__day--empty" fill="#eeeeee" transform="translate(190,300)" width="9px" height="9px"></rect>
	<rect class="calViz__day calViz__day--empty" fill="#eeeeee" transform="translate(200,300)" width="9px" height="9px"></rect>
	<rect class="calViz__day calViz__day--empty" fill="#eeeeee" transform="translate(210,300)" width="9px" height="9px"></rect>
	<rect class="calViz__day calViz__day--empty" fill="#eeeeee" transform="translate(220,300)" width="9px" height="9px"></rect>
	<rect class="calViz__day calViz__day--empty" fill="#eeeeee" transform="translate(160,310)" width="9px" height="9px"></rect>
	<rect class="calViz__day calViz__day--empty" fill="#eeeeee" transform="translate(170,310)" width="9px" height="9px"></rect>
	<rect class="calViz__day calViz__day--empty" fill="#eeeeee" transform="translate(180,310)" width="9px" height="9px"></rect>
	<rect class="calViz__day calViz__day--empty" fill="#eeeeee" transform="translate(190,310)" width="9px" height="9px"></rect>
	<rect class="calViz__day calViz__day--empty" fill="#eeeeee" transform="translate(200,310)" width="9px" height="9px"></rect>
	<rect class="calViz__day calViz__day--empty" fill="#eeeeee" transform="translate(210,310)" width="9px" height="9px"></rect>
	<rect class="calViz__day calViz__day--empty" fill="#eeeeee" transform="translate(220,310)" width="9px" height="9px"></rect>
	<rect class="calViz__day calViz__day--empty" fill="#eeeeee" transform="translate(160,320)" width="9px" height="9px"></rect>
	<text class="calViz__label" transform="translate(0,72)">Jan</text>
	<text class="calViz__label" transform="translate(80,72)">Feb</text>
	<text class="calViz__label" transform="translate(160,72)">Mar</text>
	<text class="calViz__label" transform="translate(0,162)">Apr</text>
	<text class="calViz__label" transform="translate(80,162)">May</text>
	<text class="calViz__label" transform="translate(160,162)">Jun</text>
	<text class="calViz__label" transform="translate(0,252)">Jul</text>
	<text class="calViz__label" transform="translate(80,252)">Aug</text>
	<text class="calViz__label" transform="translate(160,252)">Oct</text>
	<text class="calViz__label" transform="translate(0,342)">Sep</text>
	<text class="calViz__label" transform="translate(80,342)">Nov</text>
	<text class="calViz__label" transform="translate(160,342)">Dec</text>
</svg>