<svg xmlns="http://www.w3.org/2000/svg" xmlns:xlink="http://www.w3.org/1999/xlink" viewBox="0 0 240 400">
	<rect class="calViz__day calViz__day--empty" transform="translate(50,30)" width="9px" height="9px"></rect>
	<rect class="calViz__day calViz__day--empty" transform="translate(60,30)" width="9px" height="9px"></rect>
	<rect class="calViz__day calViz__day--empty" transform="translate(0,40)" width="9px" height="9px"></rect>
	<rect class="calViz__day calViz__day--empty" transform="translate(10,40)" width="9px" height="9px"></rect>
	<rect class="calViz__day calViz__day--empty" transform="translate(20,40)" width="9px" height="9px"></rect>
	<rect class="calViz__day calViz__day--empty" transform="translate(30,40)" width="9px" height="9px"></rect>
	<rect class="calViz__day calViz__day--empty" transform="translate(40,40)" width="9px" height="9px"></rect>
	<rect class="calViz__day calViz__day--empty" transform="translate(50,40)" width="9px" height="9px"></rect>
	<rect class="calViz__day calViz__day--empty" transform="translate(60,40)" width="9px" height="9px"></rect>
	<rect class="calViz__day calViz__day--empty" transform="translate(0,50)" width="9px" height="9px"></rect>
	<rect class="calViz__day calViz__day--empty" transform="translate(10,50)" width="9px" height="9px"></rect>
	<rect class="calViz__day calViz__day--empty" transform="translate(20,50)" width="9px" height="9px"></rect>
	<rect class="calViz__day calViz__day--trip calViz__day--0" data-trip="0" transform="translate(30,50)" width="9px" height="9px"></rect>
	<rect class="calViz__day calViz__day--trip calViz__day--0" data-trip="0" transform="translate(40,50)" width="9px" height="9px"></rect>
	<rect class="calViz__day calViz__day--trip calViz__day--0" data-trip="0" transform="translate(50,50)" width="9px" height="9px"></rect>
	<rect class="calViz__day calViz__day--trip calViz__day--0" data-trip="0" transform="translate(60,50)" width="9px" height="9px"></rect>
	<rect class="calViz__day calViz__day--empty" transform="translate(0,60)" width="9px" height="9px"></rect>
	<rect class="calViz__day calViz__day--empty" transform="translate(10,60)" width="9px" height="9px"></rect>
	<rect class="calViz__day calViz__day--empty" transform="translate(20,60)" width="9px" height="9px"></rect>
	<rect class="calViz__day calViz__day--empty" transform="translate(30,60)" width="9px" height="9px"></rect>
	<rect class="calViz__day calViz__day--empty" transform="translate(40,60)" width="9px" height="9px"></rect>
	<rect class="calViz__day calViz__day--empty" transform="translate(50,60)" width="9px" height="9px"></rect>
	<rect class="calViz__day calViz__day--empty" transform="translate(60,60)" width="9px" height="9px"></rect>
	<rect class="calViz__day calViz__day--empty" transform="translate(0,70)" width="9px" height="9px"></rect>
	<rect class="calViz__day calViz__day--empty" transform="translate(10,70)" width="9px" height="9px"></rect>
	<rect class="calViz__day calViz__day--empty" transform="translate(20,70)" width="9px" height="9px"></rect>
	<rect class="calViz__day calViz__day--empty" transform="translate(30,70)" width="9px" height="9px"></rect>
	<rect class="calViz__day calViz__day--empty" transform="translate(40,70)" width="9px" height="9px"></rect>
	<rect class="calViz__day calViz__day--empty" transform="translate(50,70)" width="9px" height="9px"></rect>
	<rect class="calViz__day calViz__day--empty" transform="translate(60,70)" width="9px" height="9px"></rect>
	<rect class="calViz__day calViz__day--empty" transform="translate(0,80)" width="9px" height="9px"></rect>
	<rect class="calViz__day calViz__day--empty" transform="translate(90,30)" width="9px" height="9px"></rect>
	<rect class="calViz__day calViz__day--empty" transform="translate(100,30)" width="9px" height="9px"></rect>
	<rect class="calViz__day calViz__day--empty" transform="translate(110,30)" width="9px" height="9px"></rect>
	<rect class="calViz__day calViz__day--empty" transform="translate(120,30)" width="9px" height="9px"></rect>
	<rect class="calViz__day calViz__day--empty" transform="translate(130,30)" width="9px" height="9px"></rect>
	<rect class="calViz__day calViz__day--empty" transform="translate(140,30)" width="9px" height="9px"></rect>
	<rect class="calViz__day calViz__day--trip calViz__day--1" data-trip="1" transform="translate(80,40)" width="9px" height="9px"></rect>
	<rect class="calViz__day calViz__day--trip calViz__day--1" data-trip="1" transform="translate(90,40)" width="9px" height="9px"></rect>
	<rect class="calViz__day calViz__day--trip calViz__day--1" data-trip="1" transform="translate(100,40)" width="9px" height="9px"></rect>
	<rect class="calViz__day calViz__day--trip calViz__day--trip--dbl calViz__day--1 calViz__day--2" data-trip="2" transform="translate(110,40)" width="9px" height="9px"></rect>
	<rect class="calViz__day calViz__day--trip calViz__day--trip--dbl calViz__day--1 calViz__day--2" data-trip="2" transform="translate(120,40)" width="9px" height="9px"></rect>
	<rect class="calViz__day calViz__day--trip calViz__day--trip--dbl calViz__day--1 calViz__day--2" data-trip="2" transform="translate(130,40)" width="9px" height="9px"></rect>
	<rect class="calViz__day calViz__day--empty" transform="translate(140,40)" width="9px" height="9px"></rect>
	<rect class="calViz__day calViz__day--empty" transform="translate(80,50)" width="9px" height="9px"></rect>
	<rect class="calViz__day calViz__day--empty" transform="translate(90,50)" width="9px" height="9px"></rect>
	<rect class="calViz__day calViz__day--empty" transform="translate(100,50)" width="9px" height="9px"></rect>
	<rect class="calViz__day calViz__day--empty" transform="translate(110,50)" width="9px" height="9px"></rect>
	<rect class="calViz__day calViz__day--empty" transform="translate(120,50)" width="9px" height="9px"></rect>
	<rect class="calViz__day calViz__day--empty" transform="translate(130,50)" width="9px" height="9px"></rect>
	<rect class="calViz__day calViz__day--empty" transform="translate(140,50)" width="9px" height="9px"></rect>
	<rect class="calViz__day calViz__day--trip calViz__day--3" data-trip="3" transform="translate(80,60)" width="9px" height="9px"></rect>
	<rect class="calViz__day calViz__day--trip calViz__day--3" data-trip="3" transform="translate(90,60)" width="9px" height="9px"></rect>
	<rect class="calViz__day calViz__day--empty" transform="translate(100,60)" width="9px" height="9px"></rect>
	<rect class="calViz__day calViz__day--empty" transform="translate(110,60)" width="9px" height="9px"></rect>
	<rect class="calViz__day calViz__day--empty" transform="translate(120,60)" width="9px" height="9px"></rect>
	<rect class="calViz__day calViz__day--empty" transform="translate(130,60)" width="9px" height="9px"></rect>
	<rect class="calViz__day calViz__day--empty" transform="translate(140,60)" width="9px" height="9px"></rect>
	<rect class="calViz__day calViz__day--empty" transform="translate(80,70)" width="9px" height="9px"></rect>
	<rect class="calViz__day calViz__day--empty" transform="translate(90,70)" width="9px" height="9px"></rect>
	<rect class="calViz__day calViz__day--empty" transform="translate(180,30)" width="9px" height="9px"></rect>
	<rect class="calViz__day calViz__day--empty" transform="translate(190,30)" width="9px" height="9px"></rect>
	<rect class="calViz__day calViz__day--empty" transform="translate(200,30)" width="9px" height="9px"></rect>
	<rect class="calViz__day calViz__day--empty" transform="translate(210,30)" width="9px" height="9px"></rect>
	<rect class="calViz__day calViz__day--empty" transform="translate(220,30)" width="9px" height="9px"></rect>
	<rect class="calViz__day calViz__day--trip calViz__day--4" data-trip="4" transform="translate(160,40)" width="9px" height="9px"></rect>
	<rect class="calViz__day calViz__day--trip calViz__day--4" data-trip="4" transform="translate(170,40)" width="9px" height="9px"></rect>
	<rect class="calViz__day calViz__day--trip calViz__day--4" data-trip="4" transform="translate(180,40)" width="9px" height="9px"></rect>
	<rect class="calViz__day calViz__day--trip calViz__day--4" data-trip="4" transform="translate(190,40)" width="9px" height="9px"></rect>
	<rect class="calViz__day calViz__day--empty" transform="translate(200,40)" width="9px" height="9px"></rect>
	<rect class="calViz__day calViz__day--trip calViz__day--5" data-trip="5" transform="translate(210,40)" width="9px" height="9px"></rect>
	<rect class="calViz__day calViz__day--trip calViz__day--5" data-trip="5" transform="translate(220,40)" width="9px" height="9px"></rect>
	<rect class="calViz__day calViz__day--empty" transform="translate(160,50)" width="9px" height="9px"></rect>
	<rect class="calViz__day calViz__day--empty" transform="translate(170,50)" width="9px" height="9px"></rect>
	<rect class="calViz__day calViz__day--empty" transform="translate(180,50)" width="9px" height="9px"></rect>
	<rect class="calViz__day calViz__day--empty" transform="translate(190,50)" width="9px" height="9px"></rect>
	<rect class="calViz__day calViz__day--empty" transform="translate(200,50)" width="9px" height="9px"></rect>
	<rect class="calViz__day calViz__day--empty" transform="translate(210,50)" width="9px" height="9px"></rect>
	<rect class="calViz__day calViz__day--empty" transform="translate(220,50)" width="9px" height="9px"></rect>
	<rect class="calViz__day calViz__day--empty" transform="translate(160,60)" width="9px" height="9px"></rect>
	<rect class="calViz__day calViz__day--empty" transform="translate(170,60)" width="9px" height="9px"></rect>
	<rect class="calViz__day calViz__day--empty" transform="translate(180,60)" width="9px" height="9px"></rect>
	<rect class="calViz__day calViz__day--empty" transform="translate(190,60)" width="9px" height="9px"></rect>
	<rect class="calViz__day calViz__day--empty" transform="translate(200,60)" width="9px" height="9px"></rect>
	<rect class="calViz__day calViz__day--empty" transform="translate(210,60)" width="9px" height="9px"></rect>
	<rect class="calViz__day calViz__day--empty" transform="translate(220,60)" width="9px" height="9px"></rect>
	<rect class="calViz__day calViz__day--empty" transform="translate(160,70)" width="9px" height="9px"></rect>
	<rect class="calViz__day calViz__day--empty" transform="translate(170,70)" width="9px" height="9px"></rect>
	<rect class="calViz__day calViz__day--empty" transform="translate(180,70)" width="9px" height="9px"></rect>
	<rect class="calViz__day calViz__day--empty" transform="translate(190,70)" width="9px" height="9px"></rect>
	<rect class="calViz__day calViz__day--empty" transform="translate(200,70)" width="9px" height="9px"></rect>
	<rect class="calViz__day calViz__day--trip calViz__day--6" data-trip="6" transform="translate(50,120)" width="9px" height="9px"></rect>
	<rect class="calViz__day calViz__day--trip calViz__day--6" data-trip="6" transform="translate(60,120)" width="9px" height="9px"></rect>
	<rect class="calViz__day calViz__day--trip calViz__day--trip--dbl calViz__day--6 calViz__day--7" data-trip="7" transform="translate(0,130)" width="9px" height="9px"></rect>
	<rect class="calViz__day calViz__day--trip calViz__day--7" data-trip="7" transform="translate(10,130)" width="9px" height="9px"></rect>
	<rect class="calViz__day calViz__day--trip calViz__day--7" data-trip="7" transform="translate(20,130)" width="9px" height="9px"></rect>
	<rect class="calViz__day calViz__day--trip calViz__day--7" data-trip="7" transform="translate(30,130)" width="9px" height="9px"></rect>
	<rect class="calViz__day calViz__day--trip calViz__day--7" data-trip="7" transform="translate(40,130)" width="9px" height="9px"></rect>
	<rect class="calViz__day calViz__day--trip calViz__day--8" data-trip="8" transform="translate(50,130)" width="9px" height="9px"></rect>
	<rect class="calViz__day calViz__day--trip calViz__day--8" data-trip="8" transform="translate(60,130)" width="9px" height="9px"></rect>
	<rect class="calViz__day calViz__day--trip calViz__day--8" data-trip="8" transform="translate(0,140)" width="9px" height="9px"></rect>
	<rect class="calViz__day calViz__day--empty" transform="translate(10,140)" width="9px" height="9px"></rect>
	<rect class="calViz__day calViz__day--empty" transform="translate(20,140)" width="9px" height="9px"></rect>
	<rect class="calViz__day calViz__day--empty" transform="translate(30,140)" width="9px" height="9px"></rect>
	<rect class="calViz__day calViz__day--empty" transform="translate(40,140)" width="9px" height="9px"></rect>
	<rect class="calViz__day calViz__day--empty" transform="translate(50,140)" width="9px" height="9px"></rect>
	<rect class="calViz__day calViz__day--empty" transform="translate(60,140)" width="9px" height="9px"></rect>
	<rect class="calViz__day calViz__day--trip calViz__day--9" data-trip="9" transform="translate(0,150)" width="9px" height="9px"></rect>
	<rect class="calViz__day calViz__day--trip calViz__day--9" data-trip="9" transform="translate(10,150)" width="9px" height="9px"></rect>
	<rect class="calViz__day calViz__day--empty" transform="translate(20,150)" width="9px" height="9px"></rect>
	<rect class="calViz__day calViz__day--empty" transform="translate(30,150)" width="9px" height="9px"></rect>
	<rect class="calViz__day calViz__day--empty" transform="translate(40,150)" width="9px" height="9px"></rect>
	<rect class="calViz__day calViz__day--empty" transform="translate(50,150)" width="9px" height="9px"></rect>
	<rect class="calViz__day calViz__day--empty" transform="translate(60,150)" width="9px" height="9px"></rect>
	<rect class="calViz__day calViz__day--empty" transform="translate(0,160)" width="9px" height="9px"></rect>
	<rect class="calViz__day calViz__day--empty" transform="translate(10,160)" width="9px" height="9px"></rect>
	<rect class="calViz__day calViz__day--empty" transform="translate(20,160)" width="9px" height="9px"></rect>
	<rect class="calViz__day calViz__day--trip calViz__day--10" data-trip="10" transform="translate(30,160)" width="9px" height="9px"></rect>
	<rect class="calViz__day calViz__day--trip calViz__day--10" data-trip="10" transform="translate(40,160)" width="9px" height="9px"></rect>
	<rect class="calViz__day calViz__day--trip calViz__day--trip--dbl calViz__day--10 calViz__day--11" data-trip="11" transform="translate(50,160)" width="9px" height="9px"></rect>
	<rect class="calViz__day calViz__day--empty" transform="translate(60,160)" width="9px" height="9px"></rect>
	<rect class="calViz__day calViz__day--empty" transform="translate(80,120)" width="9px" height="9px"></rect>
	<rect class="calViz__day calViz__day--empty" transform="translate(90,120)" width="9px" height="9px"></rect>
	<rect class="calViz__day calViz__day--empty" transform="translate(100,120)" width="9px" height="9px"></rect>
	<rect class="calViz__day calViz__day--empty" transform="translate(110,120)" width="9px" height="9px"></rect>
	<rect class="calViz__day calViz__day--empty" transform="translate(120,120)" width="9px" height="9px"></rect>
	<rect class="calViz__day calViz__day--empty" transform="translate(130,120)" width="9px" height="9px"></rect>
	<rect class="calViz__day calViz__day--empty" transform="translate(140,120)" width="9px" height="9px"></rect>
	<rect class="calViz__day calViz__day--empty" transform="translate(80,130)" width="9px" height="9px"></rect>
	<rect class="calViz__day calViz__day--empty" transform="translate(90,130)" width="9px" height="9px"></rect>
	<rect class="calViz__day calViz__day--empty" transform="translate(100,130)" width="9px" height="9px"></rect>
	<rect class="calViz__day calViz__day--empty" transform="translate(110,130)" width="9px" height="9px"></rect>
	<rect class="calViz__day calViz__day--trip calViz__day--12" data-trip="12" transform="translate(120,130)" width="9px" height="9px"></rect>
	<rect class="calViz__day calViz__day--empty" transform="translate(130,130)" width="9px" height="9px"></rect>
	<rect class="calViz__day calViz__day--empty" transform="translate(140,130)" width="9px" height="9px"></rect>
	<rect class="calViz__day calViz__day--empty" transform="translate(80,140)" width="9px" height="9px"></rect>
	<rect class="calViz__day calViz__day--empty" transform="translate(90,140)" width="9px" height="9px"></rect>
	<rect class="calViz__day calViz__day--trip calViz__day--13" data-trip="13" transform="translate(100,140)" width="9px" height="9px"></rect>
	<rect class="calViz__day calViz__day--empty" transform="translate(110,140)" width="9px" height="9px"></rect>
	<rect class="calViz__day calViz__day--empty" transform="translate(120,140)" width="9px" height="9px"></rect>
	<rect class="calViz__day calViz__day--empty" transform="translate(130,140)" width="9px" height="9px"></rect>
	<rect class="calViz__day calViz__day--empty" transform="translate(140,140)" width="9px" height="9px"></rect>
	<rect class="calViz__day calViz__day--empty" transform="translate(80,150)" width="9px" height="9px"></rect>
	<rect class="calViz__day calViz__day--empty" transform="translate(90,150)" width="9px" height="9px"></rect>
	<rect class="calViz__day calViz__day--empty" transform="translate(100,150)" width="9px" height="9px"></rect>
	<rect class="calViz__day calViz__day--empty" transform="translate(110,150)" width="9px" height="9px"></rect>
	<rect class="calViz__day calViz__day--empty" transform="translate(120,150)" width="9px" height="9px"></rect>
	<rect class="calViz__day calViz__day--empty" transform="translate(130,150)" width="9px" height="9px"></rect>
	<rect class="calViz__day calViz__day--empty" transform="translate(140,150)" width="9px" height="9px"></rect>
	<rect class="calViz__day calViz__day--empty" transform="translate(80,160)" width="9px" height="9px"></rect>
	<rect class="calViz__day calViz__day--empty" transform="translate(90,160)" width="9px" height="9px"></rect>
	<rect class="calViz__day calViz__day--empty" transform="translate(100,160)" width="9px" height="9px"></rect>
	<rect class="calViz__day calViz__day--empty" transform="translate(190,120)" width="9px" height="9px"></rect>
	<rect class="calViz__day calViz__day--empty" transform="translate(200,120)" width="9px" height="9px"></rect>
	<rect class="calViz__day calViz__day--empty" transform="translate(210,120)" width="9px" height="9px"></rect>
	<rect class="calViz__day calViz__day--empty" transform="translate(220,120)" width="9px" height="9px"></rect>
	<rect class="calViz__day calViz__day--empty" transform="translate(160,130)" width="9px" height="9px"></rect>
	<rect class="calViz__day calViz__day--empty" transform="translate(170,130)" width="9px" height="9px"></rect>
	<rect class="calViz__day calViz__day--empty" transform="translate(180,130)" width="9px" height="9px"></rect>
	<rect class="calViz__day calViz__day--empty" transform="translate(190,130)" width="9px" height="9px"></rect>
	<rect class="calViz__day calViz__day--empty" transform="translate(200,130)" width="9px" height="9px"></rect>
	<rect class="calViz__day calViz__day--empty" transform="translate(210,130)" width="9px" height="9px"></rect>
	<rect class="calViz__day calViz__day--empty" transform="translate(220,130)" width="9px" height="9px"></rect>
	<rect class="calViz__day calViz__day--empty" transform="translate(160,140)" width="9px" height="9px"></rect>
	<rect class="calViz__day calViz__day--empty" transform="translate(170,140)" width="9px" height="9px"></rect>
	<rect class="calViz__day calViz__day--empty" transform="translate(180,140)" width="9px" height="9px"></rect>
	<rect class="calViz__day calViz__day--empty" transform="translate(190,140)" width="9px" height="9px"></rect>
	<rect class="calViz__day calViz__day--trip calViz__day--14" data-trip="14" transform="translate(200,140)" width="9px" height="9px"></rect>
	<rect class="calViz__day calViz__day--trip calViz__day--14" data-trip="14" transform="translate(210,140)" width="9px" height="9px"></rect>
	<rect class="calViz__day calViz__day--empty" transform="translate(220,140)" width="9px" height="9px"></rect>
	<rect class="calViz__day calViz__day--empty" transform="translate(160,150)" width="9px" height="9px"></rect>
	<rect class="calViz__day calViz__day--empty" transform="translate(170,150)" width="9px" height="9px"></rect>
	<rect class="calViz__day calViz__day--trip calViz__day--15" data-trip="15" transform="translate(180,150)" width="9px" height="9px"></rect>
	<rect class="calViz__day calViz__day--trip calViz__day--16" data-trip="16" transform="translate(190,150)" width="9px" height="9px"></rect>
	<rect class="calViz__day calViz__day--trip calViz__day--16" data-trip="16" transform="translate(200,150)" width="9px" height="9px"></rect>
	<rect class="calViz__day calViz__day--trip calViz__day--16" data-trip="16" transform="translate(210,150)" width="9px" height="9px"></rect>
	<rect class="calViz__day calViz__day--trip calViz__day--16" data-trip="16" transform="translate(220,150)" width="9px" height="9px"></rect>
	<rect class="calViz__day calViz__day--trip calViz__day--16" data-trip="16" transform="translate(160,160)" width="9px" height="9px"></rect>
	<rect class="calViz__day calViz__day--empty" transform="translate(170,160)" width="9px" height="9px"></rect>
	<rect class="calViz__day calViz__day--empty" transform="translate(180,160)" width="9px" height="9px"></rect>
	<rect class="calViz__day calViz__day--empty" transform="translate(190,160)" width="9px" height="9px"></rect>
	<rect class="calViz__day calViz__day--empty" transform="translate(200,160)" width="9px" height="9px"></rect>
	<rect class="calViz__day calViz__day--empty" transform="translate(50,210)" width="9px" height="9px"></rect>
	<rect class="calViz__day calViz__day--empty" transform="translate(60,210)" width="9px" height="9px"></rect>
	<rect class="calViz__day calViz__day--empty" transform="translate(0,220)" width="9px" height="9px"></rect>
	<rect class="calViz__day calViz__day--empty" transform="translate(10,220)" width="9px" height="9px"></rect>
	<rect class="calViz__day calViz__day--empty" transform="translate(20,220)" width="9px" height="9px"></rect>
	<rect class="calViz__day calViz__day--trip calViz__day--17" data-trip="17" transform="translate(30,220)" width="9px" height="9px"></rect>
	<rect class="calViz__day calViz__day--trip calViz__day--17" data-trip="17" transform="translate(40,220)" width="9px" height="9px"></rect>
	<rect class="calViz__day calViz__day--trip calViz__day--17" data-trip="17" transform="translate(50,220)" width="9px" height="9px"></rect>
	<rect class="calViz__day calViz__day--trip calViz__day--17" data-trip="17" transform="translate(60,220)" width="9px" height="9px"></rect>
	<rect class="calViz__day calViz__day--empty" transform="translate(0,230)" width="9px" height="9px"></rect>
	<rect class="calViz__day calViz__day--trip calViz__day--18" data-trip="18" transform="translate(10,230)" width="9px" height="9px"></rect>
	<rect class="calViz__day calViz__day--trip calViz__day--19" data-trip="19" transform="translate(20,230)" width="9px" height="9px"></rect>
	<rect class="calViz__day calViz__day--trip calViz__day--19" data-trip="19" transform="translate(30,230)" width="9px" height="9px"></rect>
	<rect class="calViz__day calViz__day--trip calViz__day--19" data-trip="19" transform="translate(40,230)" width="9px" height="9px"></rect>
	<rect class="calViz__day calViz__day--empty" transform="translate(50,230)" width="9px" height="9px"></rect>
	<rect class="calViz__day calViz__day--empty" transform="translate(60,230)" width="9px" height="9px"></rect>
	<rect class="calViz__day calViz__day--empty" transform="translate(0,240)" width="9px" height="9px"></rect>
	<rect class="calViz__day calViz__day--empty" transform="translate(10,240)" width="9px" height="9px"></rect>
	<rect class="calViz__day calViz__day--empty" transform="translate(20,240)" width="9px" height="9px"></rect>
	<rect class="calViz__day calViz__day--empty" transform="translate(30,240)" width="9px" height="9px"></rect>
	<rect class="calViz__day calViz__day--trip calViz__day--20" data-trip="20" transform="translate(40,240)" width="9px" height="9px"></rect>
	<rect class="calViz__day calViz__day--empty" transform="translate(50,240)" width="9px" height="9px"></rect>
	<rect class="calViz__day calViz__day--empty" transform="translate(60,240)" width="9px" height="9px"></rect>
	<rect class="calViz__day calViz__day--empty" transform="translate(0,250)" width="9px" height="9px"></rect>
	<rect class="calViz__day calViz__day--empty" transform="translate(10,250)" width="9px" height="9px"></rect>
	<rect class="calViz__day calViz__day--empty" transform="translate(20,250)" width="9px" height="9px"></rect>
	<rect class="calViz__day calViz__day--empty" transform="translate(30,250)" width="9px" height="9px"></rect>
	<rect class="calViz__day calViz__day--empty" transform="translate(40,250)" width="9px" height="9px"></rect>
	<rect class="calViz__day calViz__day--empty" transform="translate(50,250)" width="9px" height="9px"></rect>
	<rect class="calViz__day calViz__day--empty" transform="translate(60,250)" width="9px" height="9px"></rect>
	<rect class="calViz__day calViz__day--empty" transform="translate(0,260)" width="9px" height="9px"></rect>
	<rect class="calViz__day calViz__day--empty" transform="translate(90,210)" width="9px" height="9px"></rect>
	<rect class="calViz__day calViz__day--empty" transform="translate(100,210)" width="9px" height="9px"></rect>
	<rect class="calViz__day calViz__day--empty" transform="translate(110,210)" width="9px" height="9px"></rect>
	<rect class="calViz__day calViz__day--empty" transform="translate(120,210)" width="9px" height="9px"></rect>
	<rect class="calViz__day calViz__day--empty" transform="translate(130,210)" width="9px" height="9px"></rect>
	<rect class="calViz__day calViz__day--empty" transform="translate(140,210)" width="9px" height="9px"></rect>
	<rect class="calViz__day calViz__day--empty" transform="translate(80,220)" width="9px" height="9px"></rect>
	<rect class="calViz__day calViz__day--empty" transform="translate(90,220)" width="9px" height="9px"></rect>
	<rect class="calViz__day calViz__day--empty" transform="translate(100,220)" width="9px" height="9px"></rect>
	<rect class="calViz__day calViz__day--empty" transform="translate(110,220)" width="9px" height="9px"></rect>
	<rect class="calViz__day calViz__day--empty" transform="translate(120,220)" width="9px" height="9px"></rect>
	<rect class="calViz__day calViz__day--empty" transform="translate(130,220)" width="9px" height="9px"></rect>
	<rect class="calViz__day calViz__day--empty" transform="translate(140,220)" width="9px" height="9px"></rect>
	<rect class="calViz__day calViz__day--empty" transform="translate(80,230)" width="9px" height="9px"></rect>
	<rect class="calViz__day calViz__day--empty" transform="translate(90,230)" width="9px" height="9px"></rect>
	<rect class="calViz__day calViz__day--empty" transform="translate(100,230)" width="9px" height="9px"></rect>
	<rect class="calViz__day calViz__day--empty" transform="translate(110,230)" width="9px" height="9px"></rect>
	<rect class="calViz__day calViz__day--empty" transform="translate(120,230)" width="9px" height="9px"></rect>
	<rect class="calViz__day calViz__day--empty" transform="translate(130,230)" width="9px" height="9px"></rect>
	<rect class="calViz__day calViz__day--empty" transform="translate(140,230)" width="9px" height="9px"></rect>
	<rect class="calViz__day calViz__day--empty" transform="translate(80,240)" width="9px" height="9px"></rect>
	<rect class="calViz__day calViz__day--empty" transform="translate(90,240)" width="9px" height="9px"></rect>
	<rect class="calViz__day calViz__day--empty" transform="translate(100,240)" width="9px" height="9px"></rect>
	<rect class="calViz__day calViz__day--empty" transform="translate(110,240)" width="9px" height="9px"></rect>
	<rect class="calViz__day calViz__day--empty" transform="translate(120,240)" width="9px" height="9px"></rect>
	<rect class="calViz__day calViz__day--empty" transform="translate(130,240)" width="9px" height="9px"></rect>
	<rect class="calViz__day calViz__day--empty" transform="translate(140,240)" width="9px" height="9px"></rect>
	<rect class="calViz__day calViz__day--empty" transform="translate(80,250)" width="9px" height="9px"></rect>
	<rect class="calViz__day calViz__day--empty" transform="translate(90,250)" width="9px" height="9px"></rect>
	<rect class="calViz__day calViz__day--empty" transform="translate(100,250)" width="9px" height="9px"></rect>
	<rect class="calViz__day calViz__day--empty" transform="translate(110,250)" width="9px" height="9px"></rect>
	<rect class="calViz__day calViz__day--empty" transform="translate(200,210)" width="9px" height="9px"></rect>
	<rect class="calViz__day calViz__day--empty" transform="translate(210,210)" width="9px" height="9px"></rect>
	<rect class="calViz__day calViz__day--empty" transform="translate(220,210)" width="9px" height="9px"></rect>
	<rect class="calViz__day calViz__day--empty" transform="translate(160,220)" width="9px" height="9px"></rect>
	<rect class="calViz__day calViz__day--empty" transform="translate(170,220)" width="9px" height="9px"></rect>
	<rect class="calViz__day calViz__day--empty" transform="translate(180,220)" width="9px" height="9px"></rect>
	<rect class="calViz__day calViz__day--empty" transform="translate(190,220)" width="9px" height="9px"></rect>
	<rect class="calViz__day calViz__day--trip calViz__day--21" data-trip="21" transform="translate(200,220)" width="9px" height="9px"></rect>
	<rect class="calViz__day calViz__day--trip calViz__day--21" data-trip="21" transform="translate(210,220)" width="9px" height="9px"></rect>
	<rect class="calViz__day calViz__day--trip calViz__day--21" data-trip="21" transform="translate(220,220)" width="9px" height="9px"></rect>
	<rect class="calViz__day calViz__day--empty" transform="translate(160,230)" width="9px" height="9px"></rect>
	<rect class="calViz__day calViz__day--empty" transform="translate(170,230)" width="9px" height="9px"></rect>
	<rect class="calViz__day calViz__day--empty" transform="translate(180,230)" width="9px" height="9px"></rect>
	<rect class="calViz__day calViz__day--empty" transform="translate(190,230)" width="9px" height="9px"></rect>
	<rect class="calViz__day calViz__day--empty" transform="translate(200,230)" width="9px" height="9px"></rect>
	<rect class="calViz__day calViz__day--empty" transform="translate(210,230)" width="9px" height="9px"></rect>
	<rect class="calViz__day calViz__day--empty" transform="translate(220,230)" width="9px" height="9px"></rect>
	<rect class="calViz__day calViz__day--empty" transform="translate(160,240)" width="9px" height="9px"></rect>
	<rect class="calViz__day calViz__day--empty" transform="translate(170,240)" width="9px" height="9px"></rect>
	<rect class="calViz__day calViz__day--trip calViz__day--22" data-trip="22" transform="translate(180,240)" width="9px" height="9px"></rect>
	<rect class="calViz__day calViz__day--empty" transform="translate(190,240)" width="9px" height="9px"></rect>
	<rect class="calViz__day calViz__day--empty" transform="translate(200,240)" width="9px" height="9px"></rect>
	<rect class="calViz__day calViz__day--empty" transform="translate(210,240)" width="9px" height="9px"></rect>
	<rect class="calViz__day calViz__day--empty" transform="translate(220,240)" width="9px" height="9px"></rect>
	<rect class="calViz__day calViz__day--empty" transform="translate(160,250)" width="9px" height="9px"></rect>
	<rect class="calViz__day calViz__day--empty" transform="translate(170,250)" width="9px" height="9px"></rect>
	<rect class="calViz__day calViz__day--empty" transform="translate(180,250)" width="9px" height="9px"></rect>
	<rect class="calViz__day calViz__day--empty" transform="translate(190,250)" width="9px" height="9px"></rect>
	<rect class="calViz__day calViz__day--empty" transform="translate(200,250)" width="9px" height="9px"></rect>
	<rect class="calViz__day calViz__day--empty" transform="translate(210,250)" width="9px" height="9px"></rect>
	<rect class="calViz__day calViz__day--empty" transform="translate(60,300)" width="9px" height="9px"></rect>
	<rect class="calViz__day calViz__day--empty" transform="translate(0,310)" width="9px" height="9px"></rect>
	<rect class="calViz__day calViz__day--empty" transform="translate(10,310)" width="9px" height="9px"></rect>
	<rect class="calViz__day calViz__day--trip calViz__day--23" data-trip="23" transform="translate(20,310)" width="9px" height="9px"></rect>
	<rect class="calViz__day calViz__day--trip calViz__day--23" data-trip="23" transform="translate(30,310)" width="9px" height="9px"></rect>
	<rect class="calViz__day calViz__day--trip calViz__day--24" data-trip="24" transform="translate(40,310)" width="9px" height="9px"></rect>
	<rect class="calViz__day calViz__day--trip calViz__day--24" data-trip="24" transform="translate(50,310)" width="9px" height="9px"></rect>
	<rect class="calViz__day calViz__day--empty" transform="translate(60,310)" width="9px" height="9px"></rect>
	<rect class="calViz__day calViz__day--trip calViz__day--25" data-trip="25" transform="translate(0,320)" width="9px" height="9px"></rect>
	<rect class="calViz__day calViz__day--trip calViz__day--25" data-trip="25" transform="translate(10,320)" width="9px" height="9px"></rect>
	<rect class="calViz__day calViz__day--empty" transform="translate(20,320)" width="9px" height="9px"></rect>
	<rect class="calViz__day calViz__day--empty" transform="translate(30,320)" width="9px" height="9px"></rect>
	<rect class="calViz__day calViz__day--empty" transform="translate(40,320)" width="9px" height="9px"></rect>
	<rect class="calViz__day calViz__day--empty" transform="translate(50,320)" width="9px" height="9px"></rect>
	<rect class="calViz__day calViz__day--empty" transform="translate(60,320)" width="9px" height="9px"></rect>
	<rect class="calViz__day calViz__day--empty" transform="translate(0,330)" width="9px" height="9px"></rect>
	<rect class="calViz__day calViz__day--empty" transform="translate(10,330)" width="9px" height="9px"></rect>
	<rect class="calViz__day calViz__day--trip calViz__day--26" data-trip="26" transform="translate(20,330)" width="9px" height="9px"></rect>
	<rect class="calViz__day calViz__day--trip calViz__day--trip--dbl calViz__day--26 calViz__day--27" data-trip="27" transform="translate(30,330)" width="9px" height="9px"></rect>
	<rect class="calViz__day calViz__day--trip calViz__day--27" data-trip="27" transform="translate(40,330)" width="9px" height="9px"></rect>
	<rect class="calViz__day calViz__day--trip calViz__day--27" data-trip="27" transform="translate(50,330)" width="9px" height="9px"></rect>
	<rect class="calViz__day calViz__day--empty" transform="translate(60,330)" width="9px" height="9px"></rect>
	<rect class="calViz__day calViz__day--empty" transform="translate(0,340)" width="9px" height="9px"></rect>
	<rect class="calViz__day calViz__day--trip calViz__day--28" data-trip="28" transform="translate(10,340)" width="9px" height="9px"></rect>
	<rect class="calViz__day calViz__day--trip calViz__day--28" data-trip="28" transform="translate(20,340)" width="9px" height="9px"></rect>
	<rect class="calViz__day calViz__day--empty" transform="translate(30,340)" width="9px" height="9px"></rect>
	<rect class="calViz__day calViz__day--trip calViz__day--29" data-trip="29" transform="translate(40,340)" width="9px" height="9px"></rect>
	<rect class="calViz__day calViz__day--trip calViz__day--trip--dbl calViz__day--29 calViz__day--30" data-trip="30" transform="translate(50,340)" width="9px" height="9px"></rect>
	<rect class="calViz__day calViz__day--trip calViz__day--30" data-trip="30" transform="translate(60,340)" width="9px" height="9px"></rect>
	<rect class="calViz__day calViz__day--empty" transform="translate(0,350)" width="9px" height="9px"></rect>
	<rect class="calViz__day calViz__day--empty" transform="translate(10,350)" width="9px" height="9px"></rect>
	<rect class="calViz__day calViz__day--empty" transform="translate(100,300)" width="9px" height="9px"></rect>
	<rect class="calViz__day calViz__day--empty" transform="translate(110,300)" width="9px" height="9px"></rect>
	<rect class="calViz__day calViz__day--empty" transform="translate(120,300)" width="9px" height="9px"></rect>
	<rect class="calViz__day calViz__day--empty" transform="translate(130,300)" width="9px" height="9px"></rect>
	<rect class="calViz__day calViz__day--empty" transform="translate(140,300)" width="9px" height="9px"></rect>
	<rect class="calViz__day calViz__day--empty" transform="translate(80,310)" width="9px" height="9px"></rect>
	<rect class="calViz__day calViz__day--trip calViz__day--31" data-trip="31" transform="translate(90,310)" width="9px" height="9px"></rect>
	<rect class="calViz__day calViz__day--trip calViz__day--31" data-trip="31" transform="translate(100,310)" width="9px" height="9px"></rect>
	<rect class="calViz__day calViz__day--trip calViz__day--31" data-trip="31" transform="translate(110,310)" width="9px" height="9px"></rect>
	<rect class="calViz__day calViz__day--empty" transform="translate(120,310)" width="9px" height="9px"></rect>
	<rect class="calViz__day calViz__day--empty" transform="translate(130,310)" width="9px" height="9px"></rect>
	<rect class="calViz__day calViz__day--trip calViz__day--32" data-trip="32" transform="translate(140,310)" width="9px" height="9px"></rect>
	<rect class="calViz__day calViz__day--trip calViz__day--32" data-trip="32" transform="translate(80,320)" width="9px" height="9px"></rect>
	<rect class="calViz__day calViz__day--trip calViz__day--33" data-trip="33" transform="translate(90,320)" width="9px" height="9px"></rect>
	<rect class="calViz__day calViz__day--trip calViz__day--33" data-trip="33" transform="translate(100,320)" width="9px" height="9px"></rect>
	<rect class="calViz__day calViz__day--empty" transform="translate(110,320)" width="9px" height="9px"></rect>
	<rect class="calViz__day calViz__day--empty" transform="translate(120,320)" width="9px" height="9px"></rect>
	<rect class="calViz__day calViz__day--trip calViz__day--34" data-trip="34" transform="translate(130,320)" width="9px" height="9px"></rect>
	<rect class="calViz__day calViz__day--trip calViz__day--35" data-trip="35" transform="translate(140,320)" width="9px" height="9px"></rect>
	<rect class="calViz__day calViz__day--empty" transform="translate(80,330)" width="9px" height="9px"></rect>
	<rect class="calViz__day calViz__day--empty" transform="translate(90,330)" width="9px" height="9px"></rect>
	<rect class="calViz__day calViz__day--empty" transform="translate(100,330)" width="9px" height="9px"></rect>
	<rect class="calViz__day calViz__day--empty" transform="translate(110,330)" width="9px" height="9px"></rect>
	<rect class="calViz__day calViz__day--empty" transform="translate(120,330)" width="9px" height="9px"></rect>
	<rect class="calViz__day calViz__day--empty" transform="translate(130,330)" width="9px" height="9px"></rect>
	<rect class="calViz__day calViz__day--empty" transform="translate(140,330)" width="9px" height="9px"></rect>
	<rect class="calViz__day calViz__day--empty" transform="translate(80,340)" width="9px" height="9px"></rect>
	<rect class="calViz__day calViz__day--empty" transform="translate(90,340)" width="9px" height="9px"></rect>
	<rect class="calViz__day calViz__day--trip calViz__day--36" data-trip="36" transform="translate(100,340)" width="9px" height="9px"></rect>
	<rect class="calViz__day calViz__day--trip calViz__day--trip--dbl calViz__day--37" data-trip="37" transform="translate(110,340)" width="9px" height="9px"></rect>
	<rect class="calViz__day calViz__day--empty" transform="translate(200,300)" width="9px" height="9px"></rect>
	<rect class="calViz__day calViz__day--empty" transform="translate(210,300)" width="9px" height="9px"></rect>
	<rect class="calViz__day calViz__day--empty" transform="translate(220,300)" width="9px" height="9px"></rect>
	<rect class="calViz__day calViz__day--empty" transform="translate(160,310)" width="9px" height="9px"></rect>
	<rect class="calViz__day calViz__day--empty" transform="translate(170,310)" width="9px" height="9px"></rect>
	<rect class="calViz__day calViz__day--empty" transform="translate(180,310)" width="9px" height="9px"></rect>
	<rect class="calViz__day calViz__day--empty" transform="translate(190,310)" width="9px" height="9px"></rect>
	<rect class="calViz__day calViz__day--empty" transform="translate(200,310)" width="9px" height="9px"></rect>
	<rect class="calViz__day calViz__day--trip calViz__day--39" data-trip="39" transform="translate(210,310)" width="9px" height="9px"></rect>
	<rect class="calViz__day calViz__day--trip calViz__day--39" data-trip="39" transform="translate(220,310)" width="9px" height="9px"></rect>
	<rect class="calViz__day calViz__day--trip calViz__day--39" data-trip="39" transform="translate(160,320)" width="9px" height="9px"></rect>
	<rect class="calViz__day calViz__day--empty" transform="translate(170,320)" width="9px" height="9px"></rect>
	<rect class="calViz__day calViz__day--trip calViz__day--40" data-trip="40" transform="translate(180,320)" width="9px" height="9px"></rect>
	<rect class="calViz__day calViz__day--trip calViz__day--40" data-trip="40" transform="translate(190,320)" width="9px" height="9px"></rect>
	<rect class="calViz__day calViz__day--empty" transform="translate(200,320)" width="9px" height="9px"></rect>
	<rect class="calViz__day calViz__day--empty" transform="translate(210,320)" width="9px" height="9px"></rect>
	<rect class="calViz__day calViz__day--empty" transform="translate(220,320)" width="9px" height="9px"></rect>
	<rect class="calViz__day calViz__day--empty" transform="translate(160,330)" width="9px" height="9px"></rect>
	<rect class="calViz__day calViz__day--empty" transform="translate(170,330)" width="9px" height="9px"></rect>
	<rect class="calViz__day calViz__day--empty" transform="translate(180,330)" width="9px" height="9px"></rect>
	<rect class="calViz__day calViz__day--empty" transform="translate(190,330)" width="9px" height="9px"></rect>
	<rect class="calViz__day calViz__day--empty" transform="translate(200,330)" width="9px" height="9px"></rect>
	<rect class="calViz__day calViz__day--empty" transform="translate(210,330)" width="9px" height="9px"></rect>
	<rect class="calViz__day calViz__day--empty" transform="translate(220,330)" width="9px" height="9px"></rect>
	<rect class="calViz__day calViz__day--empty" transform="translate(160,340)" width="9px" height="9px"></rect>
	<rect class="calViz__day calViz__day--empty" transform="translate(170,340)" width="9px" height="9px"></rect>
	<rect class="calViz__day calViz__day--empty" transform="translate(180,340)" width="9px" height="9px"></rect>
	<rect class="calViz__day calViz__day--empty" transform="translate(190,340)" width="9px" height="9px"></rect>
	<rect class="calViz__day calViz__day--empty" transform="translate(200,340)" width="9px" height="9px"></rect>
	<rect class="calViz__day calViz__day--empty" transform="translate(210,340)" width="9px" height="9px"></rect>
	<rect class="calViz__day calViz__day--empty" transform="translate(220,340)" width="9px" height="9px"></rect>
	<text class="calViz__label" transform="translate(0,26)">Jan</text>
	<text class="calViz__label" transform="translate(80,26)">Feb</text>
	<text class="calViz__label" transform="translate(160,26)">Mar</text>
	<text class="calViz__label" transform="translate(0,116)">Apr</text>
	<text class="calViz__label" transform="translate(80,116)">May</text>
	<text class="calViz__label" transform="translate(160,116)">Jun</text>
	<text class="calViz__label" transform="translate(0,206)">Jul</text>
	<text class="calViz__label" transform="translate(80,206)">Aug</text>
	<text class="calViz__label" transform="translate(160,206)">Sep</text>
	<text class="calViz__label" transform="translate(0,296)">Oct</text>
	<text class="calViz__label" transform="translate(80,296)">Nov</text>
	<text class="calViz__label" transform="translate(160,296)">Dec</text>
</svg>